<svg xmlns="http://www.w3.org/2000/svg" viewBox="0 0 512 512" enable-background="new 0 0 512 512"><path fill="#010101" d="M452.4 346.2c-11.5 0-20.6 2.3-29.8 6.9l-146.8-135.4v-68.8c22.9-6.9 41.3-29.8 41.3-57.3 0-32.1-27.5-59.6-59.6-59.6s-59.6 27.5-59.6 61.9c0 27.5 18.3 48.2 41.3 57.3v71.1l-146.8 135.3c-9.2-6.9-18.3-11.5-29.8-11.5-32.1 0-59.6 27.5-59.6 59.6s27.5 59.6 59.6 59.6 59.6-27.5 59.6-59.6c0-9.2-2.3-16.1-4.6-25.2l121.5-110.1v78c-22.9 6.9-41.3 29.8-41.3 57.3 0 32.1 27.5 59.6 59.6 59.6s59.6-27.5 59.6-59.6c0-27.5-18.3-48.2-41.3-57.3v-78l121.5 110.1c-2.3 6.9-4.6 16.1-4.6 25.2 0 32.1 27.5 59.6 59.6 59.6s59.6-27.5 59.6-59.6-27.3-59.5-59.4-59.5z"/></svg>