<svg xmlns="http://www.w3.org/2000/svg" viewBox="0 0 512 512" enable-background="new 0 0 512 512"><path fill="#010101" d="M256 512c-140.8 0-256-115.2-256-256s115.2-256 256-256 256 115.2 256 256-115.2 256-256 256zm0-473.6c-119.5 0-217.6 98.1-217.6 217.6s98.1 217.6 217.6 217.6 217.6-98.1 217.6-217.6-98.1-217.6-217.6-217.6zM256 166.4l21.3 44.8 6.4 12.8 14.9 2.1 49.1 6.4-34.1 34.1-12.8 10.7 2.1 12.8 8.5 49.1-42.7-23.5-12.8-6.4-12.8 6.4-42.7 23.5 8.5-49.1v-12.8l-10.7-10.7-34.1-34.1 49.1-6.4 14.9-2.1 6.4-12.8 21.5-44.8m0-59.7l-46.9 91.7-102.4 14.9 74.7 72.5-17.1 102.4 91.7-46.9 91.7 46.9-17.1-102.4 74.7-72.5-102.4-14.9-46.9-91.7z"/></svg>