<svg xmlns="http://www.w3.org/2000/svg" viewBox="0 0 512 512" enable-background="new 0 0 512 512"><path fill="#010101" d="M112.6 131.4l60.7 60.6-60.7 58.5 19.5 19.5 78-78-78-78z"/><path fill="#010101" d="M186.3 131.4l60.6 60.6-60.6 58.5 17.3 19.5 80.2-78-80.2-78z"/><path fill="#010101" d="M365.5 321.7h-23.4l-8.8-8.8c29.2-32.2 46.8-76 46.8-122.8 0-105.3-84.8-190.1-190-190.1s-190.1 84.8-190.1 190.1 84.8 190.1 190.1 190.1c46.8 0 90.7-17.6 122.8-46.8l8.8 8.8v23.4l146.2 146.2 43.9-43.9-146.3-146.2zm-175.4 0c-73.1 0-131.6-58.5-131.6-131.6s58.5-131.6 131.6-131.6 131.6 58.5 131.6 131.6-58.5 131.6-131.6 131.6z"/></svg>