<svg xmlns="http://www.w3.org/2000/svg" viewBox="0 0 512 512" enable-background="new 0 0 512 512"><path fill="#010101" d="M493.8 91.6h-58v-40.5c0-9.7-8.5-18.2-18.8-18.2h-399.4c-9.6 0-17.6 8.5-17.6 18.2v340.6c0 30.7 25.6 56.3 56.3 56.3h399.4c30.7-.6 56.3-25 56.3-56.3v-282.5c0-9.6-8-17.6-18.2-17.6zm-437.5 319.4c-10.8 0-19.3-8.5-19.3-19.3v-321.8h362.4v321.8c0 6.3 1.1 13.1 3.4 19.3h-346.5zm418.7-19.3c0 10.8-8.5 19.3-19.9 19.3-10.8 0-19.9-8.5-19.9-19.3v-263.7h39.8v263.7zm-251-103.7h128v-32h-128v32zm0 64h128v-32h-128v32zm-160-229.8v69.8h288v-69.8h-288zm0 229.8h128v-96h-128v96z"/></svg>