<svg xmlns="http://www.w3.org/2000/svg" viewBox="0 0 512 512"><defs><style>.cls-1,.cls-2{fill:#010101;}.cls-2{fill-rule:evenodd;}</style></defs><title>bhi_tearsheet</title><path class="cls-1" d="M132.76 108.97h246.47v50.66h-246.47zM132.76 204.23h246.47v50.66h-246.47zM132.76 299.48h246.47v50.66h-246.47z"/><path class="cls-2" d="M32 32v443.08l46.19 35.56 35.56-35.56 35.56 35.56 35.56-35.56 35.56 35.56 35.57-35.56 35.56 35.56 35.56-35.56 35.56 35.56 35.56-35.56 35.56 35.56 46.2-35.56v-443.08c0-14.36-17.64-32-32-32h-384c-14.36 0-32 17.64-32 32zm384 397.25l-17.75-22.68-34.25 34.25-1.31 1.31-1.31-1.31-34.26-34.25-34.25 34.26-1.31 1.31-1.31-1.31-34.25-34.26-34.26 34.26-1.31 1.31-1.31-1.31-34.25-34.26-34.25 34.25-1.31 1.31-1.31-1.31-34.26-34.26-17.74 22.69v-365.25h320v365.25z"/></svg>