<svg xmlns="http://www.w3.org/2000/svg" viewBox="0 0 512 512" enable-background="new 0 0 512 512"><path fill="none" d="M-7248.9-3748.2h9258v7438.2h-9258zM-7248.9-3748.2h9258v7438.2h-9258zM-7248.9-3748.2h9258v7438.2h-9258z"/><path fill-rule="evenodd" clip-rule="evenodd" d="M156.7 267.6h52.3v84.4h-52.3zM229.9 224h52.3v128h-52.3zM303.1 174.3h52.3v177.7h-52.3z"/><path d="M96 128c0-17.1 15.1-32 32-32h256c17.1 0 32 15.1 32 32v256c0 17.1-15.1 32-32 32h-256c-17.1 0-32-15.1-32-32v-256zm288 256v-256h-256v256h256zM496 96h-32.2c-8.8 0-16 7.2-16 16s7.2 16 16 16h32.2c8.8 0 16-7.2 16-16s-7.2-16-16-16zM496 384h-32.2c-8.8 0-16 7.2-16 16s7.2 16 16 16h32.2c8.8 0 16-7.2 16-16s-7.2-16-16-16zM416 496v-32.2c0-8.8-7.2-16-16-16s-16 7.2-16 16v32.2c0 8.8 7.2 16 16 16s16-7.2 16-16zM128 496v-32.2c0-8.8-7.2-16-16-16s-16 7.2-16 16v32.2c0 8.8 7.2 16 16 16s16-7.2 16-16zM15.8 416h32.2c8.8 0 16-7.2 16-16s-7.2-16-16-16h-32.2c-8.8 0-16 7.2-16 16 .1 8.8 7.2 16 16 16zM15.8 128h32.2c8.8 0 16-7.2 16-16s-7.2-16-16-16h-32.2c-8.8 0-16 7.2-16 16 .1 8.8 7.2 16 16 16zM96 16v32.2c0 8.8 7.2 16 16 16s16-7.2 16-16v-32.2c0-8.8-7.2-16-16-16s-16 7.2-16 16zM384 16v32.2c0 8.8 7.2 16 16 16s16-7.2 16-16v-32.2c0-8.8-7.2-16-16-16s-16 7.2-16 16z"/></svg>