<svg xmlns="http://www.w3.org/2000/svg" viewBox="0 0 512 512" enable-background="new 0 0 512 512"><path fill="#010101" d="M263 505.5c-69.9 0-135.1-28-184-76.9-48.9-48.9-76.9-114.1-76.9-184s28-135.1 76.9-184c28-28 60.6-46.6 97.8-60.6h4.7c4.7 0 9.3 2.3 11.6 4.7 4.7 4.7 7 11.6 4.7 16.3-30.3 83.9-9.3 174.7 53.6 237.6 41.9 41.9 100.2 65.2 160.7 65.2 25.6 0 51.2-4.7 76.9-14h4.7c4.7 0 9.3 2.3 11.6 4.7 4.7 4.7 7 11.6 4.7 16.3-14 37.3-34.9 69.9-60.6 97.8-51.3 49-116.5 76.9-186.4 76.9zm-142.1-440.3l-18.6 18.6c-41.9 42-67.6 100.2-67.6 160.8s23.3 118.8 67.6 160.7c41.9 41.9 100.2 65.2 160.7 65.2 69.9 0 135.1-30.3 179.4-86.2l25.6-32.6-39.6 2.3h-16.3c-69.9 0-135.1-28-184-76.9-53.6-48.9-81.5-121.1-76.9-195.7l2.3-39.6-32.6 23.4z"/></svg>