<svg xmlns="http://www.w3.org/2000/svg" viewBox="0 0 512 512" enable-background="new 0 0 512 512"><path fill="#010101" d="M183.1 82v194.3l12.9 12.9 126.7 126.7c-68.4 41.8-162.8 37.4-230.9-31.6-15.4-15.5-27.4-34.4-34.9-54.9-41.7-113.8 24.1-222.5 126.2-247.4m22.1-48.5c-146.3 14.2-252.2 167.1-184 325.5 19.3 44.8 54.4 81.8 98.4 102.7 102.5 48.8 205.4 22.4 269.3-42.3l-161.7-161.4v-226c-11.4 0-22 1.5-22 1.5zM300.2 48.9c65.6 16.3 117.3 65.3 133.5 130.9h-133.5v-130.9m-44.1-27.4v202.5h227.2c0-118-90-212.5-205.2-223.5.4-.1-16.6-.9-22.1-.1l.1 21.1zM511.6 256c0 63-25.7 118.9-67.4 160h-.1l-156.1-160h223.6z"/></svg>