<svg xmlns="http://www.w3.org/2000/svg" viewBox="0 0 512 512" enable-background="new 0 0 512 512"><path fill="#010101" d="M299.1 466.6c-60.5 60.5-161.3 60.5-221.8 0s-60.5-161.3 0-221.8l211.7-211.6c44.3-44.3 116.9-44.3 161.3 0s44.3 116.9 0 161.3l-171.3 171.3c-28.2 28.2-72.6 28.2-100.8 0s-28.2-72.6 0-100.8l151.2-151.2 30.2 30.2-151.2 151.2c-12.1 12.1-12.1 28.2 0 40.3 12.1 12.1 28.2 12.1 40.3 0l171.4-171.4c28.2-28.2 28.2-72.6 0-100.8s-72.6-28.2-100.8 0l-211.7 211.8c-44.3 44.3-44.3 116.9 0 161.3s116.9 44.3 161.3 0l191.5-191.5 30.2 30.2-191.5 191.5z"/></svg>