<svg xmlns="http://www.w3.org/2000/svg" viewBox="0 0 512 512" enable-background="new 0 0 512 512"><path fill="#010101" d="M503.6 310.4c-27.7 115.3-122.8 195.7-243 195.7-63.5 0-125.1-25.1-171.3-69l-42 42c-4 3.9-34.9 32.9-34.9 32.9s-.6-36.2-.6-47.6v-166.7h215.60000000000002s-30.3 31.6-34.2 35.5l-44.6 44.6c30.6 28.7 71.3 44.9 113.4 44.9 58 0 111.7-30 142-79.5 9.4-15.1 13.1-29.8 20.6-45.6h69c5.8 0 13.3.3 13.3.3s-3.1 11.8-3.3 12.5zm8.4-96.1h-215.70000000000002s30.3-31.6 34.2-35.5l44.9-45c-31-28.6-71.7-44.6-113.7-44.6-58 0-111.7 30-142 79.5-9.4 15.1-13.1 29.8-20.6 45.6h-71.1c-5.8 0-13.4-.3-13.4-.3s3-11.7 3-12.4c28-115.6 124.1-195.7 244.3-195.7 63.8 0 126 25.4 172.3 69l42.3-42c3.9-3.9 35.5-32.9 35.5-32.9v214.3z"/></svg>