<svg xmlns="http://www.w3.org/2000/svg" viewBox="0 0 512 512" enable-background="new 0 0 512 512"><path fill="#010101" d="M365.4 224.5c10 21.6 15.7 45.5 15.7 70.8 0 93.4-76 169.4-169.4 169.4s-169.4-76-169.4-169.4 76-169.4 169.4-169.4c25.3 0 49.2 5.7 70.8 15.7l31.5-31.5c-30.4-16.9-65.2-26.5-102.3-26.5-116.7-.1-211.7 94.9-211.7 211.6s95 211.8 211.7 211.8 211.7-95 211.7-211.7c0-37.1-9.7-72-26.5-102.3l-31.5 31.5z"/><path fill="#010101" d="M288 0v32h160l-268.7 271.1 29 29 271.7-268.1v160h32v-224z"/></svg>