<svg xmlns="http://www.w3.org/2000/svg" viewBox="0 0 512 512"><defs><style>.cls-1{fill:#231f20;fill-rule:evenodd;}</style></defs><title>bhi_2</title><path class="cls-1" d="M332.8 409.6v51.2h51.2v-51.2h-51.2zm-102.4 0v51.2h51.2v-51.2h-51.2zm-102.4 0v51.2h51.2v-51.2h-51.2zm204.8-102.4v51.2h51.2v-51.2h-51.2zm-102.4 0v51.2h51.2v-51.2h-51.2zm-102.4 0v51.2h51.2v-51.2h-51.2zm204.8-102.4v51.2h51.2v-51.2h-51.2zm-102.4 0v51.2h51.2v-51.2h-51.2zm-102.4 0v51.2h51.2v-51.2h-51.2zm0-153.6v102.4h256v-102.4h-256zm256-51.2c28.28 0 64.33 13.67 64 64v384c1 49-35.72 64-64 64h-256c-28.28 0-62.33-21-64-64v-384c.33-47.67 35.72-64 64-64h256z"/></svg>