<svg xmlns="http://www.w3.org/2000/svg" viewBox="0 0 512 512" enable-background="new 0 0 512 512"><path fill="#010101" d="M28.4-.2c-15.7 0-28.4 12.7-28.4 28.4 0 266.9 216.4 483.3 483.3 483.3 15.7 0 28.4-12.7 28.4-28.4v-99.5c0-15.7-12.7-28.4-28.4-28.4-35.5 0-69.6-5.7-101.5-16.2-9.9-3.1-21-.9-29 6.8l-62.5 62.5c-80.5-40.9-146.5-106.6-187.4-187.3l62.5-62.8c8-7.4 10.2-18.5 7.1-28.4-10.5-31.8-16.2-66-16.2-101.5 0-15.7-12.7-28.4-28.4-28.4h-99.5m426.4 227.3v-42.6h-99.5l156.4-156.4-28.4-28.4-156.4 156.3v-99.4h-42.6l1 170.6h169.5z"/></svg>