<svg xmlns="http://www.w3.org/2000/svg" viewBox="0 0 512 512" enable-background="new 0 0 512 512"><path fill="#010101" d="M439.4 149.3c.3 4.4.3 8.7.3 13 0 132.7-101 285.6-285.6 285.6-56.8.1-109.7-16.4-154.1-45 8.1 1 15.9 1.3 24.2 1.3 46.9 0 90.1-15.9 124.7-42.9-44.1-1-81.1-29.9-93.9-69.6 6.2 1 12.4 1.6 19 1.6 9 0 18-1.3 26.4-3.4-46-9.3-80.5-49.7-80.5-98.5v-1.3c13.3 7.5 28.9 12.2 45.4 12.8-27-18-44.8-48.8-44.8-83.6 0-18.7 5-35.8 13.7-50.7 49.4 60.9 123.7 100.7 207 105.1-1.5-7.5-2.5-15.2-2.5-23 0-55.3 44.8-100.4 100.4-100.4 28.9 0 55 12.1 73.3 31.7 22.7-4.4 44.5-12.7 63.8-24.2-7.5 23.3-23.3 42.9-44.1 55.3 20.2-2.2 39.8-7.7 57.8-15.5-13.8 19.7-30.9 37.4-50.5 51.7z"/></svg>