<svg xmlns="http://www.w3.org/2000/svg" width="512" height="384" viewBox="0 0 512 384"><style type="text/css">.st0{fill:#010101;}</style><path class="st0" d="M416 32c-13-20.5-23.5-31.5-64-32h-320c-23.5-.5-32 8.2-32 31.8v320.2c0 23.5 8.5 32 32 32h320c14.8 0 43 2 64-32l96-160-96-160zm-283 192c-17.7 0-32-14.3-32-32s14.3-32 32-32 32 14.3 32 32-14.3 32-32 32zm98 0c-17.7 0-32-14.3-32-32s14.3-32 32-32 32 14.3 32 32-14.3 32-32 32zm96 0c-17.7 0-32-14.3-32-32s14.3-32 32-32 32 14.3 32 32-14.3 32-32 32z"/></svg>