<svg xmlns="http://www.w3.org/2000/svg" viewBox="0 0 512 512" enable-background="new 0 0 512 512"><path fill="#010101" d="M480.2 232h.2l-133.6-152.9h-.1c-9.6-9.3-22.7-15.1-37.2-15.1-17.9 0-33.7 8.9-43.4 22.4-3.3-.4-6.6-1-10.1-1s-6.7.6-10.1 1c-9.7-13.5-25.5-22.4-43.4-22.4-14.5 0-27.5 5.8-37.2 15.1h-.1l-133.6 152.9h.2c-20.2 19.5-32.8 46.6-32.8 76.9 0 59.1 48 107.1 107.1 107.1 50.3 0 92.2-34.9 103.7-81.8l7.5-29.2c6.8-14.6 21.5-48.2 38.7-48.2s31.8 33.7 38.7 48.2l7.5 29.2c11.4 46.9 53.4 81.8 103.7 81.8 59.2 0 107.1-48 107.1-107.1 0-30.3-12.7-57.4-32.8-76.9zm-374.1 119.8c-23.7 0-42.9-19.2-42.9-42.9 0-23.6 19.2-42.8 42.9-42.8 23.6 0 42.8 19.2 42.8 42.8 0 23.6-19.2 42.9-42.8 42.9zm149.9-137.9c-8 0-15.6 1.5-22.9 3.5l21.4-87.1-.1-.1.6-1.9 1.1-.1 1.1.1c.1.7.4 1.3.6 1.9l-.1.1 21.4 87.1c-7.5-2-15.1-3.5-23.1-3.5zm149.8 137.9c-23.6 0-42.8-19.2-42.8-42.9 0-23.6 19.2-42.8 42.8-42.8 23.6 0 42.9 19.2 42.9 42.8 0 23.6-19.2 42.9-42.9 42.9z"/></svg>