<svg xmlns="http://www.w3.org/2000/svg" viewBox="0 0 512 512" enable-background="new 0 0 512 512"><path fill="#010101" d="M307.8 288.8c-6.8 18.5-17.5 36-32.4 50.8-54.9 54.9-144.2 54.9-199.1 0s-54.9-144.2 0-199.1 144.2-54.9 199.1 0c14.9 14.9 25.6 32.3 32.4 50.9h37.1c-7.9-27.8-22.7-53.9-44.6-75.7-68.6-68.7-180.2-68.7-248.8-.1s-68.6 180.3 0 248.9 180.3 68.6 248.9 0c21.8-21.8 36.6-48 44.6-75.7h-37.2z"/><path fill="#010101" d="M394.5 127.7l-23.5 23.5 77.5 72.5h-296.1v32h296.1l-77.5 72.5 23.5 23.5 117.5-111.5z"/></svg>