<svg xmlns="http://www.w3.org/2000/svg" viewBox="0 0 512 512" enable-background="new 0 0 512 512"><g fill="#010101"><path d="M364.3 398.3c-70.4 53.8-169.9 48.6-234.5-16-63.3-63.3-68.7-162.7-16.3-233.2l-54.2-54.2c-85 99.4-77.7 247.6 16.3 341.6 93.6 93.6 243.2 99 343.4 16.4l-54.7-54.6zM399.5 362.8l54.5 54.5c46.9-57.3 65-130 55.3-201.4l-74.1 19.9c4.6 44.4-7.8 89.9-35.7 127zM95.4 58.7l54.2 54.2c70.5-52.4 169.9-47 233.2 16.3 16.3 16.3 27.1 34.3 36.2 54.2l74.1-19.9c-10.8-32.5-30.7-63.3-57.8-90.4-92.3-92.1-238.7-97.5-339.9-14.4z"/></g></svg>