<svg xmlns="http://www.w3.org/2000/svg" viewBox="0 0 512 512" enable-background="new 0 0 512 512"><path fill="#010101" d="M392.6 238.5c-23 25.3-53.3 61-56 96.6 9.7 5.7 15.7 16.3 15.7 27.3 0 8-3 15.7-8.3 21.3 5.3 5.7 8.3 13.3 8.3 21.3 0 11-5.7 21-15 27 2.7 4.7 4.3 10.3 4.3 15.7 0 21.7-17 32-36.3 32-8.7 19.3-28 32-49 32s-40.3-12.7-49-32c-19.3 0-36.3-10.3-36.3-32 0-5.3 1.6-11 4.3-15.7-9.3-6-15-16-15-27 0-8 3-15.7 8.3-21.3-5.3-5.7-8.3-13.3-8.3-21.3 0-11 6-21.7 15.7-27.3-2.7-35.7-33-71.3-56-96.6s-34.3-55-34.3-89.3c0-90.6 86.3-149.2 170.6-149.2s170.6 58.6 170.6 149.3c-.1 34.2-11.4 63.9-34.3 89.2zm-136.3-195.9c-60.3 0-127.9 40-127.9 106.6 0 21.3 8.7 43.6 22.7 60 6.3 7.3 13.7 14.3 20.3 22 23.6 28.3 43.6 61.6 47 99.3h76c3.3-37.6 23.3-71 47-99.3 6.7-7.7 14-14.7 20.3-22 14-16.3 22.7-38.6 22.7-60-.2-66.6-67.8-106.6-128.1-106.6z"/></svg>