<svg xmlns="http://www.w3.org/2000/svg" viewBox="0 0 512 512" enable-background="new 0 0 512 512"><path fill="#010101" d="M455.2-2.5h-398.5c-32.7 0-56.7 26.2-56.7 58.9v257.2c0 32.7 26.2 56.7 56.7 56.7h194c15.3 0 30.5 6.5 41.4 17.4l117.7 117.7c4.4 4.4 8.7 6.5 15.3 6.5 10.9 0 21.8-8.7 21.8-21.8l6.1-122.1h2.2c32.7 0 56.7-26.2 56.7-56.7v-254.9c2.2-32.7-24-58.9-56.7-58.9zm-333.1 226.7c-17.8 0-32.1-14.3-32.1-32.1s14.3-32.1 32.1-32.1 32.1 14.3 32.1 32.1c-1.8 17.9-16.1 32.1-32.1 32.1zm135.1 0c-17.8 0-32.1-14.3-32.1-32.1s14.3-32.1 32.1-32.1 32.1 14.3 32.1 32.1c-1.7 17.9-16 32.1-32.1 32.1zm126.3.3c-17.9 0-32.2-14.3-32.2-32.2s14.3-32.2 32.2-32.2 32.2 14.3 32.2 32.2-14.3 32.2-32.2 32.2z"/></svg>