<svg xmlns="http://www.w3.org/2000/svg" viewBox="0 0 512 512" enable-background="new 0 0 512 512"><g fill="#010101"><path d="M359 162.1v-126.2c0-19.7-16.1-35.9-35.9-35.9h-287.2c-19.7 0-35.9 16.2-35.9 35.9v219.2c0 19.8 16.2 35.9 35.9 35.9h162.9c19.2-71.8 83.3-125.4 160.2-128.9zm-323.1-126.2l143.6 89.8 143.6-89.8v35.9l-143.6 89.8-143.6-89.8v-35.9zM367 191.9c-79.2 0-144.1 64.8-144.1 144.1s64.9 144 144.1 144 144.1-64.8 144.1-144.1-64.9-144-144.1-144zm71.6 158.2h-57.6v57.6h-28.8v-57.6h-57.6v-28.8h57.6v-57.6h28.8v57.6h57.6v28.8z"/></g></svg>