<svg xmlns="http://www.w3.org/2000/svg" viewBox="0 0 512 512" enable-background="new 0 0 512 512"><path fill="#010101" d="M75 466.5c-48.3-48.3-75-112.6-75-181s26.6-132.7 75-181c48.3-48.3 112.6-75 181-75s132.7 26.6 181 75c85.3 85.3 99.2 218.2 34.4 319l-27.8-27.7c50.5-85.7 37-193.6-33.6-264.3-41.2-41.1-95.9-63.8-154-63.8-58.2 0-112.8 22.7-154 63.8-77.6 77.5-85.3 201-18 287.4l5.1 6.4 47.7-47.7-3.5-5c-42.8-60.2-36-141.7 16.2-193.8 28.4-28.4 66.3-44.1 106.6-44.1s78.1 15.7 106.6 44.1c44.3 44.3 56.4 110.4 31.4 167.1l-30.1-30.1c11.2-39.4.5-81.2-28.3-110-21.4-21.1-49.7-32.8-79.7-32.8-30.1 0-58.3 11.7-79.6 32.9-36 36-43.1 92.1-17.1 136.4l4.7 8.1 49.4-49.4-1.1-4c-4.2-15.9.1-32.3 11.6-43.7 8.5-8.6 19.9-13.3 32.1-13.3 12.2 0 23.6 4.7 32.1 13.3 8.6 8.5 13.3 19.9 13.3 32.1 0 12.2-4.7 23.6-13.3 32.1-8.5 8.5-19.7 13.2-31.6 13.2-4 0-8.1-.5-12-1.6l-4-1.1-152 152-13.5-13.5z"/></svg>