<svg xmlns="http://www.w3.org/2000/svg" viewBox="0 0 512 512" enable-background="new 0 0 512 512"><path fill="#010101" d="M64 83.3v330c0 18.7 15 33.7 33.7 33.7h268.3c18.7 0 33.7-15 33.7-33.7v-380c0-18.7-15-33.9-33.7-33.9h-218.1l-83.9 83.9zm56 28h223.8v263.1c0 9.2-7.4 16.6-16.6 16.6h-190.6c-9.2 0-16.6-7.4-16.6-16.6v-263.1zm0-28l56-56v56h-56zM147.9 139.3h167.9v56h-167.9zM147.9 223.2h167.9v56h-167.9zM147.9 307.1h167.9v56h-167.9zM128 479.4v32.6h294.9c39.1 0 43-5.6 43-43v-341.6h-34.2v352h-303.7z"/></svg>