<svg xmlns="http://www.w3.org/2000/svg" viewBox="0 0 512 512" enable-background="new 0 0 512 512"><path fill="#010101" d="M256 511c-140.5 0-255.5-115-255.5-255.5s115-255.5 255.5-255.5 255.5 115 255.5 255.5-115 255.5-255.5 255.5zm0-470.5c-121.4 0-217.2 95.8-217.2 217.2s98 217.1 217.2 217.1 217.2-97.9 217.2-217.2-98-217.1-217.2-217.1zM385.9 240.6c-6.4-59.6-55.4-108.6-115-115v-27.7h-29.8v29.8c-59.6 6.4-108.6 55.4-115 115h-27.7v29.8h29.8c6.4 59.6 55.4 108.6 115 115v29.8h29.8v-29.8c59.6-6.4 108.6-55.4 115-115h29.8v-29.8h-31.9v-2.1zm-27.7 0h-44.7c-6.4-21.3-21.3-36.2-42.6-40.5v-44.7c44.7 6.4 80.9 42.6 87.3 85.2zm-115-85.2v44.7c-19.2 6.4-36.2 21.3-40.5 40.5h-44.7c6.4-42.6 40.5-78.8 85.2-85.2zm-85.1 115h44.7c4.3 19.2 21.3 36.2 40.5 40.5v44.7c-44.8-6.4-78.9-40.5-85.2-85.2zm112.8 85.2v-44.7c21.3-4.3 36.2-21.3 42.6-42.6h44.7c-6.4 46.8-42.6 80.9-87.3 87.3z"/></svg>