<svg xmlns="http://www.w3.org/2000/svg" viewBox="0 0 512 512" enable-background="new 0 0 512 512"><g fill="#020202"><path d="M256.5 305.1c83.2 0 151.5-68.3 151.5-151.5s-68.3-153.6-151.5-153.6-151.5 68.3-151.5 153.6 68.3 151.5 151.5 151.5zm-29.8-181.4l29.8-59.7 29.9 59.7 66.1 8.5-46.9 46.9 8.5 64-59.7-32-59.7 32 10.7-66.1-44.8-44.8 66.1-8.5zM373.5 306.4c-.7-1.9-3-2.5-4.5-1.2-8.5 7.3-35.1 17.3-39.2 18.9-17.5 6.9-35.8 11.9-54.5 13.8-24.9 2.6-50.2-.3-74.5-6.6-18.6-4.8-45.6-12.9-59.2-28.4-1.4-1.6-3.9-1.2-4.8.8-3.5 8.4-5.8 17.2-8.8 25.7-6.7 19-13.5 38-20.2 56.9l-28.7 81 76.8-25.6 49.1 68.3 49.8-139 50.6 141 49.1-68.3 76.8 25.6s-47.4-133.7-57.8-162.9z"/></g></svg>