<svg xmlns="http://www.w3.org/2000/svg" viewBox="0 0 512 512" enable-background="new 0 0 512 512"><g fill="#010101"><path d="M16.1 270.9c-9.2 0-16.1-6.9-16.1-16.1 0-9.2 6.9-16.1 16.1-16.1h39c9.2 0 16.1 6.9 16.1 16.1 0 9.2-6.9 16.1-16.1 16.1h-39zM84.9 440.8c-4.6 0-9.2-2.3-11.5-4.6-6.9-6.9-6.9-16.1 0-23l27.5-27.5c2.3-2.3 6.9-4.6 11.5-4.6s9.2 2.3 11.5 4.6c6.9 6.9 6.9 16.1 0 23l-27.5 27.5c-2.3 2.3-6.9 4.6-11.5 4.6zM114.8 130.9c-4.6 0-9.2-2.3-11.5-4.6l-29.8-27.5c-4.6-6.9-4.6-16.1 0-23 4.6-2.3 6.9-4.6 11.5-4.6s9.2 2.3 11.5 4.6l27.5 27.5c2.3 2.3 4.6 6.9 4.6 11.5s-2.3 9.2-4.6 11.5c-2.3 2.3-6.9 4.6-9.2 4.6zM254.8 73.5c-9.2 0-16.1-6.9-16.1-16.1v-41.3c0-9.2 6.9-16.1 16.1-16.1 9.2 0 16.1 6.9 16.1 16.1v39c0 11.5-6.9 18.4-16.1 18.4zM394.9 130.9c-4.6 0-9.2-2.3-11.5-4.6s-4.6-6.9-4.6-11.5 2.3-9.2 4.6-11.5l29.8-27.5c2.3-2.3 6.9-4.6 11.5-4.6s9.2 2.3 11.5 4.6c6.9 6.9 6.9 16.1 0 23l-27.5 27.5c-4.6 2.3-9.2 4.6-13.8 4.6zM454.6 270.9c-9.2 0-16.1-6.9-16.1-16.1 0-9.2 6.9-16.1 16.1-16.1h39c9.2 0 16.1 6.9 16.1 16.1 0 9.2-6.9 16.1-16.1 16.1h-39zM424.7 440.8c-4.6 0-9.2-2.3-11.5-4.6l-27.5-27.5c-2.3-2.3-4.6-6.9-4.6-11.5s2.3-9.2 4.6-11.5 6.9-4.6 11.5-4.6 9.2 2.3 11.5 4.6l27.5 27.5c6.9 6.9 6.9 16.1 0 23-4.6 2.3-6.9 4.6-11.5 4.6zM254.8 512c-9.2 0-16.1-6.9-16.1-16.1v-39c0-9.2 6.9-16.1 16.1-16.1 9.2 0 16.1 6.9 16.1 16.1v39c0 9.2-6.9 16.1-16.1 16.1zM254.8 392.6c-75.8 0-135.5-59.7-135.5-135.5s59.7-135.5 135.5-135.5 135.5 59.7 135.5 135.5-62 135.5-135.5 135.5zm-6.9-236.5v202h4.6c59.7 0 105.6-45.9 105.6-103.3s-45.9-103.3-103.3-103.3h-6.8999999999999995v4.6z"/></g></svg>