<svg xmlns="http://www.w3.org/2000/svg" viewBox="0 0 512 512" enable-background="new 0 0 512 512"><g fill="#010101"><path d="M488.3 117.2l-.1-.1c1.5-1.8 2.5-4.1 2.5-6.6 0-5.9-4.8-10.7-10.7-10.7-2.5 0-4.8 1-6.6 2.5l-.1-.1-244.3 199.2.1.1c-9.6 7.8-15.9 19.6-15.9 32.9 0 23.6 19.1 42.7 42.7 42.7 13.4 0 25.1-6.3 32.9-15.9l.1.1 199.4-244.1z"/><circle cx="256" cy="163.8" r="21.3"/><circle cx="85.3" cy="334.5" r="21.3"/><circle cx="134.4" cy="212.9" r="21.3"/><circle cx="426.7" cy="334.5" r="21.3"/><path d="M480.4 211.9l-29.5 36.2c.7 1.6 1.6 3.1 2.2 4.7 21.8 52.6 21.8 110.5 0 163.1h45.3c19.8-58.7 18-121.7-5.9-179.5-3.5-8.4-7.7-16.5-12.1-24.5zM337.6 137.4l4.7 2.2 36.2-29.5c-8-4.4-16.1-8.6-24.6-12.1-63.1-26.2-132.7-26.2-195.9 0-63.1 26.1-112.3 75.3-138.5 138.5-24 57.8-25.7 120.8-5.9 179.5h45.3c-21.8-52.6-21.8-110.5 0-163.2 21.8-52.7 62.8-93.7 115.5-115.5 52.6-21.7 110.6-21.7 163.2.1z"/></g></svg>