<svg xmlns="http://www.w3.org/2000/svg" viewBox="0 0 512 512" enable-background="new 0 0 512 512"><path fill="#010101" d="M28.4 0c-15.7 0-28.4 12.7-28.4 28.4 0 267.1 216.5 483.6 483.6 483.6 15.7 0 28.4-12.7 28.4-28.4v-99.6c0-15.7-12.7-28.4-28.4-28.4-35.6 0-69.7-5.7-101.5-16.2-10-3.1-21-.9-29 6.8l-62.6 62.6c-80.5-41-146.5-106.7-187.4-187.4l62.6-62.9c8-7.4 10.2-18.5 7.1-28.4-10.5-31.9-16.2-66-16.2-101.5-.2-15.9-12.9-28.6-28.6-28.6h-99.6m312.9 0v42.7h99.6l-156.5 156.4 28.4 28.4 156.5-156.4v99.6h42.7v-170.7h-170.7z"/></svg>