<svg xmlns="http://www.w3.org/2000/svg" viewBox="0 0 512 512" enable-background="new 0 0 512 512"><path fill="#020202" d="M433.5 46.5h-110.3c-10.6-27.5-36-46.5-65.6-46.5s-55 21.2-65.6 46.5h-113.5c-25.3 0-46.5 21.2-46.5 46.6v372.4c0 25.4 21.2 46.5 46.5 46.5h354.9c25.4 0 46.5-21.2 46.5-46.5v-372.4c.1-25.4-21.1-46.6-46.4-46.6zm-175.9 0c12.7 0 23.3 10.6 23.3 23.3s-10.6 23.3-23.3 23.3-23.3-10.6-23.3-23.3 10.6-23.3 23.3-23.3zm30.4 372.4h-162.9v-46.5h194.9v46.5h-32zm96-93.1h-258.9v-46.5h258.9v46.5zm0-93.1h-258.9v-46.5h258.9v46.5z"/></svg>