<svg xmlns="http://www.w3.org/2000/svg" viewBox="0 0 512 512" enable-background="new 0 0 512 512"><path fill="#010101" d="M402.8 360.7c-19.6 0-37.1 7.7-50.5 19.8l-168.1-106.8c1.3-5.9 2.3-11.8 2.3-18 0-6.2-1-12.1-2.3-18l166.1-104c13.9 12.9 32.2 20.9 52.5 20.9 42.7 0 77.2-34.5 77.2-77.2s-34.5-77.4-77.2-77.4-77.2 34.5-77.2 77.2c0 6.2 1 12.1 2.3 18l-166.1 104c-13.9-12.9-32.2-20.9-52.5-20.9-42.7 0-77.2 34.5-77.2 77.2s34.5 77.2 77.2 77.2c20.3 0 38.6-8 52.5-20.9l167.9 107.1c-1.3 5.4-2.1 11.1-2.1 16.7 0 41.5 33.7 75.2 75.2 75.2s75.2-33.7 75.2-75.2-33.8-74.9-75.2-74.9z"/></svg>