<svg xmlns="http://www.w3.org/2000/svg" viewBox="0 0 512 512" enable-background="new 0 0 512 512"><path fill="#010101" d="M256 512c-140.8 0-256-115.2-256-256s115.2-256 256-256 256 115.2 256 256-115.2 256-256 256zm0-473.6c-119.5 0-217.6 98.1-217.6 217.6s98.1 217.6 217.6 217.6 217.6-98.1 217.6-217.6-98.1-217.6-217.6-217.6z"/><g fill="#010101"><path d="M224.1 253.7l-81.1 38.4c-17.1 10.7-25.6 34.1-19.2 51.2l4.3 8.5h102.4l-6.4-98.1zM288.1 253.7l81.1 38.4c17.1 10.7 25.6 34.1 19.2 51.2l-4.3 8.5h-102.4l6.4-98.1zM264.7 251.6v108.8l-8.6 8.5-8.5-8.5v-108.8z"/></g><path fill="#010101" d="M256.3 232.5c32 0 59.7-27.7 59.7-59.7s-27.7-59.7-59.7-59.7-59.7 27.7-59.7 59.7 25.5 59.7 59.7 59.7z"/></svg>