<svg xmlns="http://www.w3.org/2000/svg" viewBox="0 0 512 512" enable-background="new 0 0 512 512"><path fill="#010101" d="M119.1 497.9c-17.1 0-36.3-8.5-46.9-21.3l-32-36.3c-10.7-12.8-8.5-23.5-6.4-27.7 2.1-4.3 8.5-12.8 25.6-12.8h51.2l-6.4-6.4c-72.5-74.7-68.3-200.5-68.3-206.9 0-8.5 6.4-14.9 14.9-14.9h373.3c8.5 0 14.9 6.4 14.9 14.9v34.1c29.9 8.5 51.2 29.9 53.3 55.5 2.1 19.2-4.3 38.4-21.3 53.3-14.9 14.9-36.3 23.5-57.6 25.6h-12.8c-8.5 12.8-17.1 25.6-27.7 36.3l-6.4 6.4h66.1c17.1 0 23.5 8.5 25.6 12.8s4.3 14.9-6.4 27.7l-32 36.3c-10.7 12.8-29.9 23.5-46.9 23.5h-253.8v-.1zm-23.5-42.7c4.3 6.4 17.1 10.7 23.5 10.7h253.9c6.4 0 19.2-6.4 23.5-10.7l23.5-27.7h-100.4c-23.5 10.7-51.2 17.1-81.1 17.1-29.9 0-59.7-6.4-83.2-17.1h-85.3l25.6 27.7zm-27.7-253.8c2.1 32 8.5 117.3 59.7 170.7 27.7 29.9 66.1 44.8 113.1 44.8s83.2-14.9 113.1-44.8c49.1-51.2 57.6-138.7 59.7-170.7h-345.6zm369 49c-4.3 27.7-10.7 51.2-19.2 74.7 14.9-2.1 25.6-8.5 34.1-17.1 8.5-8.5 12.8-19.2 12.8-27.7-2.1-12.8-12.7-23.5-27.7-29.9z"/><path d="M149 156.8c-21.1 2.2-37.6-20.4-39-39.3-2.4-33 34.5-44.8 38.5-74.3.7-5.1-1.5-11-6.3-12.9-5.2-2-11.1 1.3-16.6.4-5.8-.9-10.1-6.8-10.2-12.7-.1-21.3 28.6-20.4 41.7-14 13.9 6.8 24.7 21 24.4 36.4-.5 27.1-28.4 45.4-38.8 68.5-7 15.6 4.6 14.2 14.6 19.8 13.1 7.3 7.6 24.5-5.6 27.6-.9.3-1.8.4-2.7.5zM255.5 156.8c-21.1 2.2-37.6-20.4-39-39.3-2.4-33 34.5-44.8 38.5-74.3.7-5.1-1.5-11-6.3-12.9-5.2-2-11.1 1.3-16.6.4-5.8-.9-10.1-6.8-10.2-12.7-.1-21.3 28.6-20.4 41.7-14 13.9 6.8 24.7 21 24.4 36.4-.5 27.1-28.4 45.4-38.8 68.5-7 15.6 4.6 14.2 14.6 19.8 13.1 7.3 7.6 24.5-5.6 27.6-.9.3-1.8.4-2.7.5zM351.5 156.8c-21.1 2.2-37.6-20.4-39-39.3-2.4-33 34.5-44.8 38.5-74.3.7-5.1-1.5-11-6.3-12.9-5.2-2-11.1 1.3-16.6.4-5.8-.9-10.1-6.8-10.2-12.7-.1-21.3 28.6-20.4 41.7-14 13.9 6.8 24.7 21 24.4 36.4-.5 27.1-28.4 45.4-38.8 68.5-7 15.6 4.6 14.2 14.6 19.8 13.1 7.3 7.6 24.5-5.6 27.6-.9.3-1.8.4-2.7.5z"/></svg>