<svg xmlns="http://www.w3.org/2000/svg" viewBox="0 0 512 512" enable-background="new 0 0 512 512"><path fill="#010101" d="M256 512c-140.8 0-256-115.2-256-256s115.2-256 256-256 256 115.2 256 256-115.2 256-256 256zm0-473.6c-121.6 0-217.6 98.1-217.6 217.6s96 217.6 217.6 217.6c119.5 0 217.6-98.1 217.6-217.6s-98.1-217.6-217.6-217.6z"/><g fill="#010101"><path d="M198.4 136.5v224h102.4v-224h-102.4zm85.3 204.8h-66.1v-25.6h66.1v25.6zm0-40.5h-66.1v-25.6h66.1v25.6zm0-38.4h-66.1v-25.6h66.1v25.6zm0-40.5h-66.1v-25.6h66.1v25.6zm0-38.4h-66.1v-25.6h66.1v25.6zM322.1 215.5v19.2h38.4v23.4h-38.4v12.8h38.4v25.6h-38.4v12.8h38.4v23.5h-38.4v19.2h55.5v-136.5zM172.8 332.8h-27.7v-23.5h27.7v-12.8h-27.7v-23.4h27.7v-12.8h-27.7v-23.5h27.7v-12.8h-27.7v-23.5h27.7v-19.2h-46.9v170.7h46.9z"/></g></svg>