<svg xmlns="http://www.w3.org/2000/svg" viewBox="0 0 512 512" enable-background="new 0 0 512 512"><path fill="#010101" d="M321.1 417.9l122.6-122.6 10.8-10.8c6.5-6.5 6.5-17.2 0-23.7l-10.8-10.8-185-185 30.1-28 28 28 185 185 2.2 2.2c10.8 12.9 10.8 30.1 0 43l-2.2 2.2-150.6 150.6-30.1-30.1zM215.7 423.4c10.8 8.6 25.8 8.6 36.6 0l137.7-137.7c10.8-10.8 10.8-25.8 0-36.6l-191.5-193.4c-6.5-6.5-15.1-10.8-25.8-15.1-10.7-4.3-21.5-8.6-30.1-8.6h-107.5c-2.2 0-4.7.7-7.3 1.7-11.7 4.5-21 13.7-25.5 25.4-1 2.6-1.7 5.2-1.7 7.3v107.6c0 8.6 2.2 19.4 6.5 30.1s10.8 19.4 17.2 25.8l191.4 193.5zm-107.5-283.9c-6.5 6.5-15.1 10.8-23.7 10.8s-17.2-4.3-23.7-10.8-10.8-15.1-10.8-23.7 4.3-17.2 10.8-23.7c6.5-6.5 15.1-10.8 23.7-10.8s17.2 4.3 23.7 10.8c6.5 6.5 10.8 15.1 10.8 23.7-2.2 8.7-4.4 17.3-10.8 23.7z"/></svg>