<svg xmlns="http://www.w3.org/2000/svg" viewBox="0 0 512 512" enable-background="new 0 0 512 512"><path fill="#010101" d="M300 128h-119.1c-11.6 0-20.9 9.4-20.9 21v227.1c0 11.6 9.3 20.9 20.9 20.9h150.2c11.6 0 20.9-9.3 20.9-20.9v-196.10000000000002l-52-52zm17.3 213.7c0 5.7-4.6 10.3-10.3 10.3h-102c-5.7 0-10.3-4.6-10.3-10.3v-144.4h122.7v144.4zm-29.3-161.7v-34.7l32 34.7h-32z"/><path d="M0 0v192h32v-160h160v-32h-23.9zM224 480h32v32h-32zM0 256h32v32h-32zM32 384h-32v128h128v-32h-96zM256 0h32v32h-32zM401.4 0h-17.4v32h96v96h32v-128zM480 224h32v32.5h-32zM480 339.7v140.3h-160v32h192v-192h-32z"/></svg>