<svg xmlns="http://www.w3.org/2000/svg" viewBox="0 0 512 448"><defs><style>.cls-1{fill:#010101;fill-rule:evenodd;}</style></defs><title>bhi_credential</title><path class="cls-1" d="M486 0h-460a26 26 0 0 0-26 26v268a26 26 0 0 0 26 26h230v128l96-64 96 64v-128h38a26 26 0 0 0 26-26v-268a26 26 0 0 0-26-26zm-442 50.86h170v45.28h-170zm0 88.64h96v45h-96zm170 129.5h-170v-45h170zm192.8-76.44l12.14 77.44-69.44-46.16-65.77 45.84 6-77.4-77.91-31.6 75.41-31.23-12.17-77.45 69.44 46.16 65.77-45.84-6 77.4 77.91 31.6z" id="Layer_1-2"/></svg>