<svg xmlns="http://www.w3.org/2000/svg" viewBox="0 0 512 512" enable-background="new 0 0 512 512"><path d="M436.4 436.4h-75.9v-118.9c0-28.3-.5-64.8-39.5-64.8-39.5 0-45.6 30.9-45.6 62.7v120.9h-75.9v-244.3h72.8v33.4h1c10.1-19.2 34.9-39.5 71.9-39.5 76.9 0 91.1 50.6 91.1 116.4v134.1h.1zm-322.5-277.8c-24.3 0-44-19.7-44-44s19.7-44 44-44 44 19.7 44 44c0 24.2-19.7 44-44 44zm38 277.8h-76v-244.4h76v244.4zm322.3-436.4h-436.4c-20.9 0-37.8 16.5-37.8 36.9v438.2c0 20.4 16.9 36.9 37.8 36.9h436.4c20.9 0 37.9-16.6 37.9-36.9v-438.2c0-20.4-17-36.9-37.9-36.9z"/></svg>