<svg xmlns="http://www.w3.org/2000/svg" viewBox="0 0 512 512" enable-background="new 0 0 512 512"><g fill="#010101"><path d="M160 32v436.6h194.3v-436.6h-194.3zm160 397.8h-121.6v-49.9h121.6v49.9zm0-77.3h-121.6v-49.9h121.6v49.9zm0-77.3h-121.6v-49.8h121.6v49.8zm0-77.2h-121.6v-49.9h121.6v49.9zm0-77.3h-121.6v-49.9h121.6v49.9zM384 192v39.8h63.7v47h-63.7v25.9h63.7v47h-63.7v25.8h63.7v47.1h-63.7v36.6h96v-269.2zM128 423.6h-60.9v-45.6h60.9v-25.1h-60.9v-45.6h60.9v-25.1h-60.9v-45.6h60.9v-25.1h-60.9v-45.5h60.9v-38h-96v331.1h96z"/></g></svg>