<svg xmlns="http://www.w3.org/2000/svg" viewBox="0 0 512 512" enable-background="new 0 0 512 512"><path fill="#010101" d="M359.8 289.5l-23.8-17.3c-8.6-6.5-17.3-15.1-17.3-30.3 0-15.1 10.8-28.1 21.6-34.6 28.1-21.6 56.2-45.4 56.2-92.9 0-45.4-28.1-71.3-43.2-84.2h36.7l26-30.2h-134c-95 0-142.6 60.5-142.6 125.3 0 49.7 38.9 103.7 108 103.7h17.3c-2.2 6.5-8.6 17.3-8.6 28.1 0 21.6 8.6 30.3 19.5 43.2-30.3 2.2-86.4 8.6-127.5 34.6-38.9 23.8-49.7 56.2-49.7 79.9 0 49.7 45.4 97.2 142.6 97.2 116.7 0 172.8-64.8 172.8-127.5.1-45.3-23.7-69.1-54-95zm-164.1-196.6c0-47.5 28.1-69.1 58.3-69.1 56.2 0 86.4 75.6 86.4 118.8 0 56.2-45.4 67-62.7 67-54 0-82-67-82-116.7zm77.7 388.9c-71.3 0-116.7-32.4-116.7-79.9s43.2-62.7 56.2-69.1c28.1-8.6 64.8-10.8 71.3-10.8h15.1c51.9 36.7 73.4 51.9 73.4 86.4.1 41-40.9 73.4-99.3 73.4z"/></svg>