<svg xmlns="http://www.w3.org/2000/svg" viewBox="0 0 512 512" enable-background="new 0 0 512 512"><path fill="#010101" d="M365.5 321.7h-23.4l-8.8-8.8c29.2-32.2 46.8-76 46.8-122.8 0-105.3-84.8-190.1-190-190.1s-190.1 84.8-190.1 190.1 84.8 190.1 190.1 190.1c46.8 0 90.7-17.6 122.8-46.8l8.8 8.8v23.4l146.2 146.2 43.9-43.9-146.3-146.2zm-190.8-83.6v-7.9c0-17.4 6.3-33.3 19-44.4l19-20.6c6.3-4.7 9.5-12.7 9.5-22.2 0-17.4-14.3-31.7-31.7-31.7s-31.7 14.2-31.7 31.7h-31.7c0-34.9 28.5-63.4 63.4-63.4s63.4 28.5 63.4 63.4c0 14.3-6.3 26.9-14.3 36.5l-14.3 14.3c-12.7 11.1-19 20.6-19 44.4h-31.6zm31.7 31.7v31.7h-31.7v-31.7h31.7z"/></svg>