<svg xmlns="http://www.w3.org/2000/svg" viewBox="0 0 512 512" enable-background="new 0 0 512 512"><path fill="#010101" d="M455.2 511.5c31.3 0 56.8-25.5 56.8-56.8v-397.9c0-31.2-25.6-56.8-56.8-56.8h-397.9c-31.2 0-56.8 25.6-56.8 56.8v397.8c0 31.3 25.6 56.8 56.8 56.8h397.9z"/><path fill="#fff" d="M412.2 182.2c.2 3.2.2 6.4.2 9.5 0 97-73.8 208.7-208.7 208.7-41.5 0-80.1-12-112.6-32.9 5.9.7 11.6.9 17.7.9 34.3 0 65.8-11.6 91.1-31.4-32.2-.7-59.3-21.8-68.6-50.9 4.5.7 9.1 1.2 13.8 1.2 6.6 0 13.2-.9 19.3-2.5-33.6-6.8-58.8-36.3-58.8-72v-.9c9.7 5.5 21.1 8.9 33.1 9.3-19.7-13.2-32.7-35.6-32.7-61.1 0-13.6 3.6-26.1 10-37 36.1 44.5 90.4 73.6 151.2 76.8-1.1-5.5-1.8-11.1-1.8-16.8 0-40.4 32.7-73.3 73.3-73.3 21.1 0 40.2 8.8 53.6 23.1 16.6-3.2 32.5-9.3 46.6-17.7-5.5 17-17 31.4-32.2 40.4 14.7-1.6 29.1-5.7 42.2-11.4-9.9 14.6-22.4 27.5-36.7 38z"/></svg>