<svg xmlns="http://www.w3.org/2000/svg" viewBox="0 0 512 512" enable-background="new 0 0 512 512"><path fill="#010101" d="M464 232.8c-10.7-97-87.7-174-184.8-184.8v-47.9h-46.5v47.9c-97 10.7-174 87.7-184.8 184.8h-47.9v46.5h47.9c10.7 97 87.7 174 184.8 184.8v47.9h46.5v-47.9c97-10.7 174-87.7 184.8-184.8h47.9v-46.5h-47.9zm-232.2 184.1c-71-10.6-126.8-66.7-136.9-137.8h71.2c8.3 32.4 33.4 57.7 65.7 66.4v71.4zm0-250.4c-32 8.6-57 33.7-65.5 65.8h-71.3c10.3-70.9 66-126.7 136.8-137.2v71.4zm46.8-71.6c71.5 9.9 128 66.1 138.4 137.5h-71.3c-8.6-32.6-34.3-58.1-67.1-66.3v-71.2zm0 322.3v-71.2c33-8.3 58.8-34 67.2-66.9h71.2c-10.2 71.7-66.7 128.1-138.4 138.1z"/></svg>