<svg xmlns="http://www.w3.org/2000/svg" xmlns:xlink="http://www.w3.org/1999/xlink" viewBox="0 0 512 512" enable-background="new 0 0 512 512"><g enable-background="new"><path fill="#010101" d="M50.7 117.3l204.8-117.3 204.8 117.3-204.8 119.5z"/><defs><path id="a" d="M50.7 117.3l204.8-117.3 204.8 117.3-204.8 119.5z"/></defs><clipPath id="b"><use xlink:href="#a" overflow="visible"/></clipPath><path fill="#010101" d="M460.3 117.3l-204.8-117.3-204.8 117.3 204.8 119.5 204.8-119.5" clip-path="url(#b)"/></g><g enable-background="new"><path fill="#010101" d="M283.3 509.9v-234.7l204.8-117.3v234.6z"/><defs><path id="c" d="M283.3 509.9v-234.7l204.8-117.3v234.6z"/></defs><clipPath id="d"><use xlink:href="#c" overflow="visible"/></clipPath><path fill="#010101" d="M488.1 157.9l-204.8 117.3v234.7l204.8-117.4v-234.6" clip-path="url(#d)"/></g><g enable-background="new"><path fill="#010101" d="M23 392.5v-234.6l204.8 117.3v236.8z"/><defs><path id="e" d="M23 392.5v-234.6l204.8 117.3v236.8z"/></defs><clipPath id="f"><use xlink:href="#e" overflow="visible"/></clipPath><path fill="#010101" d="M227.8 275.2l-204.8-117.3v234.6l204.8 119.5v-236.8" clip-path="url(#f)"/></g></svg>