<svg xmlns="http://www.w3.org/2000/svg" viewBox="0 0 512 512" enable-background="new 0 0 512 512"><g fill="#010101"><path d="M337.6 438l98.6-107.2-72.9-72.9-8.6-8.6-102.8 109.4c-2.1 2.1-2.1 4.3-4.3 4.3-27.9 27.9-70.7 27.9-98.6 0s-27.9-70.7 0-98.6l4.3-4.3 109.3-102.9-8.6-8.6-72.9-72.9-109.2 100.8-15 12.9c-4.3 6.4-10.7 10.7-12.9 17.1l-2.1 2.1c-57.9 72.9-51.4 180 15 248.6 68.6 68.6 173.6 72.9 248.6 15 6.4-4.3 12.9-10.7 17.1-15l15-19.2zM209.673 45.522l45.467-45.467 83.367 83.367-45.467 45.467zM383.135 219.132l45.467-45.467 83.367 83.367-45.467 45.467z"/></g></svg>