<svg xmlns="http://www.w3.org/2000/svg" viewBox="0 0 512 512" enable-background="new 0 0 512 512"><path d="M443.7 98.2l-153.2-88.5c-22.3-12.9-49.8-12.9-72.1 0l-153.3 88.5c-22.3 12.8-36.1 36.7-36.1 62.4v84.6h80.3l65.3-130.7 5.7-12.2 5.2 12.8 78.9 210.4 40.1-80.2h44.2c7.4-14.6 22.6-24.6 40.1-24.6 24.8 0 45 20.1 45 45 0 24.8-20.1 45-45 45-17.5 0-32.7-10.1-40.1-24.7h-18.3l-65.3 132-6.1 11.6-4.8-12.2-78.9-210.4-40.2 79h-106.1v51.6c0 25.8 13.8 49.6 36.1 62.5l153.3 88.5c22.3 12.9 49.8 12.9 72.1 0l153.3-88.5c22.3-12.9 36.1-36.7 36.1-62.5v-177c-.1-25.7-13.8-49.6-36.2-62.4z"/></svg>