<svg xmlns="http://www.w3.org/2000/svg" viewBox="0 0 512 512" enable-background="new 0 0 512 512"><path fill-rule="evenodd" clip-rule="evenodd" d="M352.8 312.9c-61.6-20.7-130.6-19.2-193.6 0v65c0 8.9-4.4 16.2-11.7 17.7-22 10.3-42.5 25.1-61.6 44.3-8.8 8.9-20.5 8.9-29.3 0l-50-50.2c-8.8-8.9-8.8-20.7 0-29.5 137.9-138.8 360.9-138.8 498.8 0 8.8 8.9 8.8 20.7 0 29.5l-51.3 51.7c-8.8 8.9-20.5 8.9-29.3 0-17.6-17.7-38.1-32.5-61.6-44.3-5.9-3-10.3-10.3-11.7-17.7l1.3-66.5zM127.8 117.6l107.5 106.4 142.4-136.5-23.6-23.5-119.1 117.1-85.3-85.1h42.3v-32h-96v96h31.8z"/></svg>