<svg xmlns="http://www.w3.org/2000/svg" width="480" height="480" viewBox="0 0 480 480"><path fill="#010101" d="M470.5 183.8c-7.7-9.2-19.1-13.8-31.1-13.8h-186.4v-54.2c26-6 45.7-29.3 45.7-57.1 0-32.3-26.3-58.7-58.8-58.7s-58.7 26.4-58.7 58.7c0 27.8 19.8 51.1 45.8 57.1v54.2h-186.4c-12 0-23.3 4.5-31.1 13.8-7.7 9.2-11 20.8-8.9 32.7l40.5 229.5c3.4 19.4 20.2 34 40 34h317.9c19.8 0 36.6-14.7 40-34.2l40.4-229c2.1-11.8-1.2-23.9-8.9-33zm-262.7-125.1c0-17.7 14.5-32.1 32.2-32.1s32.2 14.4 32.2 32.1-14.5 32.1-32.2 32.1-32.2-14.4-32.2-32.1zm245.3 153.2l-40.4 229.3c-1.1 6.7-7 11.8-13.7 11.8h-318c-6.8 0-12.6-5.3-13.7-12l-40.4-228.9c-.8-4.1.6-16.1 13.7-16.1h398.8c14.7 0 14.4 11.8 13.7 15.9zm-263.9 65.6c0-32.4-26.5-58.7-58.9-58.7-32.5 0-58.9 26.4-58.9 58.7 0 32.4 26.5 58.7 58.9 58.7 32.5 0 58.9-26.4 58.9-58.7zm-58.7 32.4c-17.8 0-32.2-14.4-32.2-32.1 0-17.7 14.5-32.1 32.2-32.1s32.2 14.4 32.2 32.1c0 17.7-14.5 32.1-32.2 32.1zm216.4-91.1c-32.5 0-58.9 26.4-58.9 58.7 0 32.4 26.5 58.7 58.9 58.7 32.5 0 58.9-26.4 58.9-58.7-.1-32.4-26.4-58.7-58.9-58.7zm.9 91.1c-17.8 0-32.2-14.4-32.2-32.1 0-17.7 14.5-32.1 32.2-32.1s32.2 14.4 32.2 32.1c0 17.7-14.4 32.1-32.2 32.1zm-39.9 73.2c-19.1 7.2-43.2 11.1-67.9 11.1s-48.9-4-67.9-11.1c-6.9-2.6-14.6.8-17.2 7.7-2.6 6.9.9 14.5 7.7 17.1 22.3 8.4 49 12.8 77.4 12.8s55.1-4.4 77.4-12.8c6.9-2.5 10.4-10.3 7.7-17.1-2.5-6.8-10.3-10.3-17.2-7.7z"/></svg>