<svg xmlns="http://www.w3.org/2000/svg" viewBox="0 0 512 512" enable-background="new 0 0 512 512"><path fill="#010101" d="M213.9 336.5l153.6-153.6-38.4-38.4-153.6 153.6 38.4 38.4zm-97.9 59.5c-44.2-44.2-44.2-113.3 0-157.4l57.6-57.6-36.5-36.5-57.6 57.6c-63.4 63.4-63.4 167 0 230.4s167 63.4 230.4 0l57.6-57.6-36.5-36.5-57.6 57.6c-44.1 44.1-113.2 44.1-157.4 0zm117.1-347.5l-57.6 57.6 36.5 36.5 57.6-57.6c44.2-44.2 113.3-44.2 157.4 0s44.2 113.3 0 157.4l-57.6 57.6 36.5 36.5 57.6-57.6c63.4-63.4 63.4-167 0-230.4s-167-63.4-230.4 0z"/></svg>