<svg xmlns="http://www.w3.org/2000/svg" viewBox="0 0 512 512" enable-background="new 0 0 512 512"><g fill="#010101"><path d="M367.1 0c-79 0-143.6 64.6-143.6 143.6s64.6 143.6 143.6 143.6 143.6-64.6 143.6-143.6-64.6-143.6-143.6-143.6zm71.4 160h-54.5v55.2h-31.6v-55.2h-57.4v-32h57.4v-56.4h31.6v56.4h54.5v32zM368.6 338.4c-17.1 73.6-83 128.6-161.7 128.6-91.6 0-166.2-74.6-166.2-166.2 0-79.9 56.6-146.7 131.9-162.6.4-14.5 2.4-28.6 5.8-42.1-100.6 13.9-178.4 100.3-178.4 204.7 0 114.1 92.8 206.9 206.9 206.9 103 0 188.4-75.7 204.1-174.4-13.7 3.2-27.8 5-42.4 5.1z"/></g></svg>