<svg xmlns="http://www.w3.org/2000/svg" viewBox="0 0 512 512" enable-background="new 0 0 512 512"><path fill="#010101" d="M311.2 347.5l-29.7-29.9c3.9-6.1 7.4-12.5 10.2-19.3 2.9-6.9 5-13.8 6.5-20.9l41.8.1c1.9-9.3 2.8-18.6 2.9-28.3 0-9.6-.9-19-2.4-28.3l-42.1-.1c-3.2-14.3-8.8-27.9-16.5-40.3l29.9-29.7c-10.9-15.5-24.5-29.1-39.9-40.1l-29.9 29.8c-6.1-3.9-12.5-7.4-19.3-10.2-6.9-2.9-13.8-4.9-20.9-6.5l.1-42.1c-9.4-1.6-18.7-2.6-28.3-2.6-9.7 0-19 .9-28.3 2.5l-.1 42c-14.3 3.2-27.9 8.8-40.3 16.5l-29.7-29.9c-15.6 10.9-29 24.4-40.2 39.9l29.7 29.9c-3.9 6.1-7.4 12.5-10.2 19.3-2.9 6.9-5 13.8-6.5 20.9l-42-.2c-1.7 9.3-2.7 18.7-2.7 28.3-.1 9.7 1 19.1 2.2 28.3l42.3.1c3.2 14.3 8.8 27.9 16.5 40.3l-29.9 29.7c10.9 15.5 24.5 29.1 39.9 40.1l29.8-29.7c6.1 3.9 12.5 7.4 19.3 10.2 6.9 2.9 13.8 4.9 20.9 6.5l-.1 42.1c9.3 1.5 18.7 2.5 28.3 2.5 9.7.1 19.2-1 28.3-2.5l.1-42c14.3-3.2 27.9-8.8 40.2-16.5l29.7 29.8c15.8-10.8 29.2-24.3 40.4-39.7zm-41.8-115.3c11.7 103-109.6 152.9-173.6 71.3-8.3-10.5-13.5-23.3-15-36.6-11.7-103 109.6-152.9 173.6-71.3 8.2 10.5 13.5 23.3 15 36.6zM507.3 344.1l-24.2 3.5c-1.5-3.9-3.3-7.7-5.5-11.5-2.2-3.7-4.7-7.1-7.5-10.3l14.5-19.4c-3.6-4.1-7.7-7.8-12.2-11.1-4.5-3.3-9.2-6.1-14-8.7l-14.6 19.6c-7.7-3.4-16-5.6-24.5-6.2l-3.5-24.2c-11-.3-22 1.3-32.5 4.7l3.5 24.2c-3.9 1.5-7.7 3.3-11.5 5.5-3.7 2.2-7.1 4.7-10.3 7.4l-19.5-14.6c-4 3.8-7.7 7.8-11 12.3-3.4 4.5-6.2 9.2-8.6 14.1l19.5 14.6c-3.4 7.7-5.6 16-6.2 24.5l-24.2 3.5c-.3 11 1.4 22 4.7 32.5l24.2-3.5c1.5 3.9 3.3 7.7 5.5 11.5 2.2 3.7 4.7 7.1 7.5 10.3l-14.6 19.5c3.7 4 7.8 7.7 12.2 11.1 4.5 3.4 9.2 6.1 14 8.8l14.7-19.7c7.7 3.4 16 5.6 24.5 6.2l3.5 24.2c11 .3 22-1.3 32.5-4.7l-3.5-24.2c3.9-1.5 7.7-3.3 11.5-5.5 3.7-2.2 7.1-4.7 10.3-7.4l19.6 14.6c3.9-3.8 7.6-7.8 11-12.3 3.4-4.5 6.2-9.3 8.6-14.1l-19.5-14.6c3.4-7.7 5.6-16 6.2-24.5l24.2-3.5c.2-11.1-1.5-22.1-4.8-32.6zm-72.4-12.1c44.4 25.8 28.4 88.7-22.9 90.1-6.6.2-13.3-1.5-19-4.8-44.4-25.8-28.4-88.7 22.9-90.1 6.6-.2 13.3 1.4 19 4.8zM507.3 68.4l-24.2 3.5c-1.5-3.9-3.3-7.7-5.5-11.5-2.2-3.7-4.7-7.1-7.5-10.3l14.5-19.4c-3.6-4.1-7.7-7.8-12.2-11.1-4.5-3.3-9.2-6.1-14-8.7l-14.6 19.6c-7.7-3.4-16-5.6-24.5-6.2l-3.5-24.3c-11-.3-22 1.3-32.5 4.7l3.5 24.2c-3.9 1.5-7.7 3.3-11.5 5.5-3.7 2.2-7.1 4.7-10.3 7.4l-19.6-14.6c-4 3.8-7.7 7.8-11 12.3-3.4 4.5-6.2 9.2-8.6 14.1l19.5 14.6c-3.4 7.7-5.6 16-6.2 24.5l-24.1 3.5c-.3 11 1.4 22 4.7 32.5l24.2-3.5c1.5 3.9 3.3 7.7 5.5 11.5 2.2 3.7 4.7 7.1 7.5 10.3l-14.6 19.5c3.7 4 7.8 7.7 12.2 11.1 4.5 3.4 9.2 6.1 14 8.8l14.7-19.7c7.7 3.4 16 5.6 24.5 6.2l3.5 24.2c11 .3 22-1.3 32.5-4.7l-3.5-24.2c3.9-1.5 7.7-3.3 11.5-5.5 3.7-2.2 7.1-4.7 10.3-7.4l19.6 14.6c3.9-3.8 7.6-7.8 11-12.3 3.4-4.5 6.2-9.3 8.6-14.1l-19.5-14.6c3.4-7.7 5.6-16 6.2-24.5l24.2-3.5c.2-11.1-1.5-22-4.8-32.5zm-72.4-12.2c44.4 25.8 28.4 88.7-22.9 90.1-6.6.2-13.3-1.5-19-4.8-44.4-25.8-28.4-88.7 22.9-90.1 6.6-.2 13.3 1.5 19 4.8z"/></svg>