<svg xmlns="http://www.w3.org/2000/svg" viewBox="0 0 512 512" enable-background="new 0 0 512 512"><g fill="#010101"><path d="M256 383.1l-255.8-125.9-.2 171.7c0 28.3 22.8 51.1 51.1 51.1h409.1c28.4 0 51.1-22.8 51.1-51.1v-173.4l-255.3 127.6zM256 338.4l255.3-127.5v-57.5c0-28.4-22.8-51.1-51.1-51.1h-102.3v-51.2c0-28.4-22.8-51.1-51.1-51.1h-102.3c-28.4 0-51.1 22.8-51.1 51.1v51.1h-102.3c-28.4 0-50.9 22.8-50.9 51.1l-.1 59.2 255.9 125.9zm-51.5-287.3h102.3v51.1h-102.3v-51.1zm-44.5 146.7h192v38.3l-96 49.9-96-49.9v-38.3z"/></g></svg>