<svg xmlns="http://www.w3.org/2000/svg" viewBox="0 0 512 512" enable-background="new 0 0 512 512"><g fill="#010101"><path d="M512.5 105.8v-49.9c0-13-10.9-23.9-23.9-23.9h-464.7c-13 0-23.9 10.9-23.9 23.9v49.9h512.5zM0 152.8v284.5c0 13 10.9 23.9 23.9 23.9h464.2c13 0 23.9-10.9 23.9-23.9v-284.5h-512zm271.4 258.5h-30.4v-30.4h30.4v30.4zm30.4-115.1l-13 13c-10.9 10.9-17.4 19.5-17.4 41.3h-30.4v-6.5c0-17.4 6.5-30.4 17.4-41.3l17.4-19.5c6.5-4.3 8.7-10.9 8.7-21.7 0-17.4-13-30.4-30.4-30.4s-30.4 13-30.4 30.4h-26.1c0-32.6 26.1-58.6 58.6-58.6s58.6 26.1 58.6 58.6c.1 15.1-4.3 26-13 34.7z"/></g></svg>