<svg xmlns="http://www.w3.org/2000/svg" viewBox="0 0 512 512" enable-background="new 0 0 512 512"><path fill="#010101" d="M384 288l32-32v104.2c0 46.6-37.8 87.8-84.4 87.8h-247.3c-46.5 0-84.3-37.8-84.3-84.4v-247.2c0-46.6 37.8-84.4 84.3-84.4h299.7l-32 32h-267.7c-25.6 0-52.3 26.6-52.3 52.4v247.2c0 25.8 26.7 52.4 52.3 52.4h247.2c25.8 0 52.4-26.6 52.4-52.4"/><path fill="#010101" d="M269.4 223.4v51.2h51.2l148.3-149.6-51.2-51.2-148.3 149.6zm238.6-137.5c5.4-5.4 5.4-13.5 0-18.9l-31-31c-5.4-5.4-13.5-5.4-18.9 0l-24.3 24.3 51.2 51.2 23-25.6z"/></svg>