<svg xmlns="http://www.w3.org/2000/svg" viewBox="0 0 512 512" enable-background="new 0 0 512 512"><path fill="#010101" d="M438.6 173.1h-22.6v-28.2c0-98.9-79.7-145.6-160.1-145.6-80.4 0-159.9 46.7-159.9 145.6v28.2h-22.7c-23.9 0-41.3 19.6-41.3 41.3v256.3c0 23.9 19.6 41.3 41.3 41.3h365.3c23.9 0 41.3-19.6 41.3-41.3v-256.3c2.1-23.9-17.4-41.3-41.3-41.3zm-278.6-15.2v-15.1c0-58.8 39.4-78.8 95.9-78.8 56.5 0 96.1 22.2 96.1 78.7v30.3h-192v-15.1zm119.8 204.2v63h-54.3v-63c-21.7-10.9-36.9-32.6-36.9-56.5 0-34.8 28.2-63 63-63s63 28.2 63 63c0 23.9-13.1 45.6-34.8 56.5z"/></svg>