<svg xmlns="http://www.w3.org/2000/svg" viewBox="0 0 512 512" enable-background="new 0 0 512 512"><g fill="#010101"><path d="M444 384h69.1v64h-69.1zM374.8 224h138.3v64h-138.3zM320 64h193.1v64h-193.1zM267.2 299.1h-17l-5.9-5.9c20.9-24.3 33.6-55.8 33.6-90.3 0-76.7-62.2-138.9-138.9-138.9s-139 62.2-139 138.9 62.2 138.9 138.9 138.9c34.5 0 66-12.6 90.3-33.4l5.9 5.9v16.9l106.9 106.6 31.8-31.8-106.6-106.9zm-128.3 0c-53.1 0-96.2-43.1-96.2-96.2s43.1-96.2 96.2-96.2 96.2 43.1 96.2 96.2-43.1 96.2-96.2 96.2z"/></g></svg>