<svg xmlns="http://www.w3.org/2000/svg" viewBox="0 0 512 512" enable-background="new 0 0 512 512"><path fill="#010101" d="M513.9 315.7l-60.5-25c1.9-11 3.1-22.3 3.1-33.8s-1.2-22.8-3.1-33.8l60-24.8c-2.8-14.4-7.1-28.4-12.8-42.3-5.7-13.8-12.7-26.6-20.4-39.1l-60.5 25c-13.1-18.5-29.3-34.7-47.8-47.8l25-60.4c-24.9-15.7-52.4-27.2-81.2-33.7l-25 60.4c-11-1.9-22.3-3.1-33.8-3.1-11.5 0-22.8 1.2-33.8 3.1l-25-60.4c-14.4 3.3-28.3 7.5-42.1 13.2-13.9 5.8-26.8 12.7-39.1 20.5l25 60.3c-18.5 13.1-34.7 29.3-47.8 47.8l-60.4-25c-15.7 25-26.9 52.4-33.7 81.2l60.5 25c-1.9 11-3.1 22.3-3.1 33.8 0 11.6 1.2 22.8 3.1 33.8l-60.2 25c3.1 14.3 7.3 28.4 13 42.2 5.7 13.9 12.9 26.7 20.1 39.2l60.7-25.2c13.1 18.5 29.3 34.7 47.8 47.8l-25 60.4c24.9 15.6 52.5 27.1 81.2 33.6l25-60.4c11 1.9 22.3 3.1 33.8 3.1 11.5 0 22.8-1.2 33.8-3.1l25 60.5c14.2-3.5 28.2-7.6 42.1-13.3 14-5.7 26.9-12.8 39.1-20.5l-25-60.3c18.5-13.1 34.7-29.3 47.8-47.8l60.4 25c15.9-24.9 27-52.3 33.8-81.1zm-128.6-142.2c81.3 145.7-67.9 294.9-213.6 213.6-18.8-10.5-34.6-26.3-45.1-45.1-81.3-145.7 67.9-294.9 213.7-213.6 18.8 10.6 34.5 26.3 45 45.1z"/></svg>