<svg xmlns="http://www.w3.org/2000/svg" viewBox="0 0 512 512" enable-background="new 0 0 512 512"><path fill="#010101" d="M256 512c-9.2 0-16.1-6.9-16.1-16.1v-39c0-9.2 6.9-16.1 16.1-16.1s16.1 6.9 16.1 16.1v39c-.1 9.2-6.9 16.1-16.1 16.1zm-170-71.2c-4.6 0-9.2-2.3-11.5-4.6-2.3-2.3-4.6-6.9-4.6-11.5s2.3-9.2 4.6-11.5l27.6-27.6c2.3-2.3 6.9-4.6 11.5-4.6s9.2 2.3 11.5 4.6c6.9 6.9 6.9 16.1 0 23l-27.6 27.6c-2.3 2.3-6.9 4.6-11.5 4.6zm339.9 0c-4.6 0-9.2-2.3-11.5-4.6l-27.6-27.6c-2.3-2.3-4.6-6.9-4.6-11.5s2.3-9.2 4.6-11.5c2.3-2.3 6.9-4.6 11.5-4.6s9.2 2.3 11.5 4.6l27.6 27.6c6.9 6.9 6.9 16.1 0 23-4.6 2.3-6.9 4.6-11.5 4.6zm-169.9-48.2c-75.8 0-135.5-59.7-135.5-135.5s59.7-135.6 135.5-135.6 135.5 59.7 135.5 135.5-59.7 135.6-135.5 135.6zm0-241.2c-57.4 0-103.4 45.9-103.4 103.4s45.9 103.3 103.4 103.3 103.4-45.9 103.4-103.4c-.1-55.1-46-103.3-103.4-103.3zm199.8 119.4c-9.2 0-16.1-6.9-16.1-16.1 0-9.2 6.9-16.1 16.1-16.1h39c9.2 0 16.1 6.9 16.1 16.1 0 9.2-6.9 16.1-16.1 16.1h-39zm-438.7 0c-9.2 0-16.1-6.9-16.1-16.1 0-9.2 6.9-16.1 16.1-16.1h39c9.2 0 16.1 6.9 16.1 16.1 0 9.2-6.9 16.1-16.1 16.1h-39zm379-140.1c-4.6 0-9.2-2.3-11.5-4.6-6.9-6.9-6.9-16.1 0-23l27.6-27.6c4.6-2.3 9.2-4.6 13.8-4.6 4.6 0 9.2 2.3 11.5 4.6 2.3 2.3 4.6 6.9 4.6 11.5s-2.3 9.2-4.6 11.5l-27.6 27.6c-4.6 2.3-9.2 4.6-13.8 4.6zm-280.2 0c-4.6 0-9.2-2.3-11.5-4.6l-29.9-27.6c-2.3-4.6-4.6-6.9-4.6-11.5s2.3-9.2 4.6-11.5c4.6-2.2 6.9-4.5 11.5-4.5s9.2 2.3 11.5 4.6l27.6 27.6c6.9 6.9 6.9 16.1 0 23-2.4 2.2-7 4.5-9.2 4.5zm140.1-57.4c-9.2 0-16.1-6.9-16.1-16.1v-41.4c0-9.2 6.9-16.1 16.1-16.1s16 7 16 16.1v39c0 11.6-6.8 18.5-16 18.5z"/></svg>