<svg xmlns="http://www.w3.org/2000/svg" viewBox="0 0 512 512" enable-background="new 0 0 512 512"><path fill="#010101" d="M448 32c-35.3 0-64 28.7-64 64 0 10.5 2.8 20.3 7.3 29.1l-68.4 99.2-2.9-.3c-8.5 0-16.6 1.7-24 4.8l-40.8-28.2c.4-2.8.9-5.6.9-8.6 0-35.3-28.7-64-64-64s-64 28.7-64 64c0 10.8 2.9 20.9 7.7 29.8l-66.1 98.7c-1.9-.2-3.7-.6-5.6-.6-35.3 0-64 28.7-64 64s28.7 64 64 64 64-28.7 64-64c0-9.5-2.2-18.5-5.9-26.6l67.8-101.6 2.1.2c8.5 0 16.6-1.7 24-4.8l40.8 35.3c-.4 2.9-.9 5.7-.9 8.6 0 35.3 28.7 56.9 64 56.9s64-28.7 64-64c0-10.5-2.8-20.3-7.3-29.1l68.4-99.2 2.9.3c35.3 0 64-28.7 64-64s-28.7-63.9-64-63.9z"/></svg>