<svg width="24" height="24" viewBox="0 0 24 24" xmlns="http://www.w3.org/2000/svg"><title>share-o</title><desc>Created with Sketch.</desc><path d="M18 16.08c1.61 0 2.92 1.31 2.92 2.92 0 1.61-1.31 2.92-2.92 2.92-1.61 0-2.92-1.31-2.92-2.92 0-.22.03-.44.08-.65l-7.12-4.16c-.54.5-1.25.81-2.04.81-1.66 0-3-1.34-3-3s1.34-3 3-3c.79 0 1.5.31 2.04.81l7.05-4.11c-.05-.23-.09-.46-.09-.7 0-1.66 1.34-3 3-3s3 1.34 3 3-1.34 3-3 3c-.79 0-1.5-.31-2.04-.81l-7.05 4.11c.05.23.09.46.09.7 0 .24-.04.47-.09.7l7.13 4.15c.52-.47 1.2-.77 1.96-.77zm0-9.08c1.105 0 2-.895 2-2s-.895-2-2-2-2 .895-2 2 .895 2 2 2zm-12 7c1.105 0 2-.895 2-2s-.895-2-2-2-2 .895-2 2 .895 2 2 2zm12 7c1.105 0 2-.895 2-2s-.895-2-2-2-2 .895-2 2 .895 2 2 2z" fill-rule="nonzero" fill="#000"/></svg>