<?xml version="1.0" encoding="utf-8"?>
<!-- Generator: Adobe Illustrator 19.2.0, SVG Export Plug-In . SVG Version: 6.00 Build 0)  -->
<svg version="1.1" id="Layer_1" xmlns="http://www.w3.org/2000/svg" xmlns:xlink="http://www.w3.org/1999/xlink" x="0px" y="0px"
	 viewBox="0 0 400 400" enable-background="new 0 0 400 400" xml:space="preserve">
<path fill="#010101" d="M361.6,96l57.4,57.4L296.7,275.7L196.4,175.5l-185.7,186L46,396.8l150.4-150.4l100.3,100.3L454.6,189
	l57.4,57.4V96H361.6z"/>
<path fill="#010101" d="M256,41c117.6,0,213.3,95.7,213.3,213.3S373.6,467.6,256,467.6S42.7,371.9,42.7,254.3S138.4,41,256,41
 M256-1.7C114.6-1.7,0,112.9,0,254.3c0,141.4,114.6,256,256,256s256-114.6,256-256C512,112.9,397.4-1.7,256-1.7L256-1.7z"/>
</svg>
